<svg width="15" height="15" viewBox="0 0 15 15" fill="none" xmlns="http://www.w3.org/2000/svg">
<path d="M7.5 13.1667C9.00289 13.1667 10.4442 12.5696 11.5069 11.5069C12.5696 10.4442 13.1667 9.00288 13.1667 7.49999C13.1667 5.9971 12.5696 4.55576 11.5069 3.49305C10.4442 2.43035 9.00289 1.83332 7.5 1.83332C5.99711 1.83332 4.55577 2.43035 3.49306 3.49305C2.43036 4.55576 1.83333 5.9971 1.83333 7.49999C1.83333 9.00288 2.43036 10.4442 3.49306 11.5069C4.55577 12.5696 5.99711 13.1667 7.5 13.1667ZM7.5 0.416656C8.4302 0.416656 9.35129 0.599872 10.2107 0.955843C11.0701 1.31181 11.8509 1.83357 12.5087 2.49132C13.1664 3.14907 13.6882 3.92993 14.0441 4.78932C14.4001 5.64871 14.5833 6.56979 14.5833 7.49999C14.5833 9.37861 13.8371 11.1803 12.5087 12.5087C11.1803 13.837 9.37862 14.5833 7.5 14.5833C3.58292 14.5833 0.416667 11.3958 0.416667 7.49999C0.416667 5.62137 1.16294 3.8197 2.49133 2.49132C3.81971 1.16293 5.62138 0.416656 7.5 0.416656ZM7.85417 3.95832V7.67707L11.0417 9.56832L10.5104 10.4396L6.79167 8.20832V3.95832H7.85417Z" fill="#EFF1F1" fill-opacity="0.65"/>
</svg>
